<mxfile host="app.diagrams.net" modified="2022-02-22T11:24:36.296Z" agent="5.0 (Windows NT 10.0; Win64; x64) AppleWebKit/537.36 (KHTML, like Gecko) Chrome/98.0.4758.102 Safari/537.36" etag="rsFX93roIPCCuL4t0Ixo" version="16.5.6" type="github">
  <diagram id="Ea1HqZ7YhVSpQEC4V17S" name="第 1 页">
    <mxGraphModel dx="1570" dy="1057" grid="0" gridSize="10" guides="1" tooltips="1" connect="1" arrows="1" fold="1" page="1" pageScale="1" pageWidth="1169" pageHeight="827" math="0" shadow="0">
      <root>
        <mxCell id="0" />
        <mxCell id="1" parent="0" />
      </root>
    </mxGraphModel>
  </diagram>
</mxfile>
